<?xml version="1.0" encoding="UTF-8"?>
<svg xmlns="http://www.w3.org/2000/svg" viewBox="0 0 1024 1024" width="1024" height="1024">
  <defs>
        <radialGradient id="g09burst" cx="50%" cy="50%">
      <stop offset="0%" stop-color="#FF6B9D"/>
      <stop offset="100%" stop-color="#6C63FF"/>
    </radialGradient>
    <linearGradient id="g09s" x1="0" y1="0" x2="1" y2="1">
      <stop offset="0%" stop-color="#6C63FF"/>
      <stop offset="35%" stop-color="#FF6B9D"/>
      <stop offset="65%" stop-color="#FF3CAC"/>
      <stop offset="100%" stop-color="#D4AF37"/>
    </linearGradient>

  </defs>
    <rect width="1024" height="1024" rx="225.0" fill="#0C0C1A"/>

  <!-- Background radial burst -->
  <circle cx="512" cy="512" r="380" fill="url(#g09burst)" opacity="0.15"/>

  <!-- Burst rays -->
  <g opacity="0.12">
    <line x1="512" y1="512" x2="512" y2="150" stroke="#6C63FF" stroke-width="40"/>
    <line x1="512" y1="512" x2="825" y2="330" stroke="#FF6B9D" stroke-width="40"/>
    <line x1="512" y1="512" x2="874" y2="512" stroke="#FF3CAC" stroke-width="40"/>
    <line x1="512" y1="512" x2="825" y2="694" stroke="#D4AF37" stroke-width="40"/>
    <line x1="512" y1="512" x2="512" y2="874" stroke="#4ADE80" stroke-width="40"/>
    <line x1="512" y1="512" x2="199" y2="694" stroke="#00D4FF" stroke-width="40"/>
    <line x1="512" y1="512" x2="150" y2="512" stroke="#6C63FF" stroke-width="40"/>
    <line x1="512" y1="512" x2="199" y2="330" stroke="#FF6B9D" stroke-width="40"/>
  </g>

  <!-- Gradient S centered -->
  <path d="M 610 350
           C 635 270, 390 255, 412 355
           C 434 455, 595 478, 615 580
           C 635 685, 395 698, 415 610"
        fill="none" stroke="url(#g09s)" stroke-width="58"
        stroke-linecap="round"/>

  <!-- White core highlight -->
  <path d="M 610 350
           C 635 270, 390 255, 412 355
           C 434 455, 595 478, 615 580
           C 635 685, 395 698, 415 610"
        fill="none" stroke="#FFFFFF" stroke-width="14"
        stroke-linecap="round" opacity="0.35"/>

</svg>